# xmcd
#
# Track frame offsets:
#	150
#	23683
#	47934
#	70069
#	95746
#	117227
#	138788
#	156473
#	175227
#
# Disc length: 2604 seconds
#
# Revision: 1
# Processed by: cddbd v1.4PL0 Copyright (c) Steve Scherf et al.
# Submitted via: audiograbber 1.82.01
#
DISCID=780a2a09
DTITLE=Mohamad Iskandar - Wassaytik
DYEAR=1900
DGENRE=
TTITLE0=Wassaytik
TTITLE1=Samra W Ani El Hassoudi
TTITLE2=Wayn Chawaderhon
TTITLE3=Eza Bithibini
TTITLE4=Ghamed 3younak
TTITLE5=3allemouni
TTITLE6=Em El Tanoura
TTITLE7=Lebes El Tarbouch
TTITLE8=Min Bayt Abouki (Zafet 3arous)
EXTD=
EXTT0=
EXTT1=
EXTT2=
EXTT3=
EXTT4=
EXTT5=
EXTT6=
EXTT7=
EXTT8=
PLAYORDER=
